<svg id="Layer_1" data-name="Layer 1" xmlns="http://www.w3.org/2000/svg" viewBox="0 0 233.04 71.52"><defs><style>.cls-1{fill:#fff;}.cls-2{fill:#4385f4;}.cls-3{isolation:isolate;}.cls-4{fill:#4a4a4a;}</style></defs><title>badge-5</title><rect class="cls-1" x="1" y="0.6" width="232.04" height="70.32" rx="10.05" ry="10.05"/><path class="cls-2" d="M57,14.66H27.64C17,17.26,16.8,26.3,16.8,26.3V56.85H28.09V29a2.82,2.82,0,0,1,2.26-2.79H57ZM34.69,30.74s-2.2-.22-2.2,1.77v8.85H47V44a1.26,1.26,0,0,1-1.31,1.33H32.49v11.5H48.31s9.59-1.5,9.67-11.5V30.74Z"/><path class="cls-2" d="M90,33c-.46.32-.79.55-1,.69A19.57,19.57,0,0,1,86.54,35a7.72,7.72,0,0,1-3,.69,10.47,10.47,0,0,1-7.5-2.84,9.46,9.46,0,0,1-3-7.17,10.51,10.51,0,0,1,2.71-7.22,8.44,8.44,0,0,1,6.59-3A10.77,10.77,0,0,1,85.8,16a9.3,9.3,0,0,1,3.8,2.24l-1.73,2a6.58,6.58,0,0,0-2.8-1.61,9.66,9.66,0,0,0-2.77-.38,5.7,5.7,0,0,0-4.56,2.24,8.28,8.28,0,0,0-1.83,5.37A6.79,6.79,0,0,0,78,30.91,7.29,7.29,0,0,0,83.31,33a5.26,5.26,0,0,0,2.75-.86l1.2-.91V26.9H81.44l.84-2.67H90Zm17.56-5.22a7.55,7.55,0,0,1-2.15,5.37,7.17,7.17,0,0,1-10.45,0,7.36,7.36,0,0,1-2.19-5.39,7.85,7.85,0,0,1,2.09-5.43,6.64,6.64,0,0,1,5.12-2.3,7.18,7.18,0,0,1,5.45,2.22A7.55,7.55,0,0,1,107.56,27.78Zm-2.73,0a4.94,4.94,0,0,0-1.37-3.55,4.47,4.47,0,0,0-3.4-1.46,4.2,4.2,0,0,0-3.25,1.5,5.07,5.07,0,0,0-1.33,3.45,4.92,4.92,0,0,0,1.35,3.47,4.43,4.43,0,0,0,3.37,1.46,4.33,4.33,0,0,0,3.24-1.44A4.73,4.73,0,0,0,104.83,27.82Zm20,0a7.55,7.55,0,0,1-2.15,5.37,7.17,7.17,0,0,1-10.45,0,7.36,7.36,0,0,1-2.19-5.39,7.85,7.85,0,0,1,2.09-5.43,6.64,6.64,0,0,1,5.12-2.3,7.18,7.18,0,0,1,5.45,2.22A7.55,7.55,0,0,1,124.88,27.78Zm-2.73,0a4.94,4.94,0,0,0-1.37-3.55,4.47,4.47,0,0,0-3.4-1.46,4.2,4.2,0,0,0-3.25,1.5,5.07,5.07,0,0,0-1.33,3.45,4.92,4.92,0,0,0,1.35,3.47,4.43,4.43,0,0,0,3.37,1.46,4.33,4.33,0,0,0,3.24-1.44A4.73,4.73,0,0,0,122.15,27.82ZM140.91,35l-2.51.39V32.92l-.54.63a6.45,6.45,0,0,1-1.59,1.12,6.27,6.27,0,0,1-2.73.61,6.51,6.51,0,0,1-5-2.21,7.6,7.6,0,0,1-2-5.29,7.93,7.93,0,0,1,2-5.43,6.33,6.33,0,0,1,4.92-2.25,6.87,6.87,0,0,1,2.91.56,5,5,0,0,1,1.49,1.06l.42.59V15.79L141,15.4l0,19.61Zm-2.35-7a5.08,5.08,0,0,0-1.46-3.7,4.45,4.45,0,0,0-3.32-1.52,4.27,4.27,0,0,0-3.36,1.44,5,5,0,0,0-1.22,3.36,5.41,5.41,0,0,0,1.26,3.68,4,4,0,0,0,3.18,1.44A4.86,4.86,0,0,0,137,31.33,4.38,4.38,0,0,0,138.56,28ZM155,18.51h-7.46v5.2h5.79v2.67h-5.79V35l-2.91.44V15.81h9.79ZM161,17l-1.79,2.32L157.47,17l1.81-2.29Zm-.53,18-2.67.37V20.87l2.67-.42Zm12-14.71-1.25,3a3.62,3.62,0,0,0-.5,0,5.12,5.12,0,0,0-.78.06,3.06,3.06,0,0,0-.83.29,3.33,3.33,0,0,0-1.46,1.61,6.73,6.73,0,0,0-.69,3V35l-2.67.44V20.87l2.47-.46v3c.32-.53.65-1.05,1-1.59a4,4,0,0,1,1.6-1.17,6.94,6.94,0,0,1,1.77-.31,7.31,7.31,0,0,1,1.37-.07ZM192.35,35l-2.67.39v-10a2.8,2.8,0,0,0-.6-2,2.32,2.32,0,0,0-1.77-.63A2.35,2.35,0,0,0,185.18,24a3.38,3.38,0,0,0-.5,1.71V35l-2.66.5v-10a3.08,3.08,0,0,0-.58-2,2,2,0,0,0-1.59-.69h-.26a2.12,2.12,0,0,0-2,1.21,5,5,0,0,0-.48,2.32V35l-2.77.5V20.87l2.49-.44v1.86a5.82,5.82,0,0,1,.82-1.05,3.46,3.46,0,0,1,2.49-1,4.3,4.3,0,0,1,2.36.52,4.45,4.45,0,0,1,1.34,1.72,4.34,4.34,0,0,1,3.92-2.24,4.23,4.23,0,0,1,3.64,1.59,6.36,6.36,0,0,1,1,3.86Zm12.18-4.41a4.34,4.34,0,0,1-1.37,3.3,4.79,4.79,0,0,1-3.47,1.3,5.49,5.49,0,0,1-2.84-.76,5.23,5.23,0,0,1-1.91-1.73L196.81,31a4,4,0,0,0,.38.5,3.34,3.34,0,0,0,2.5,1.11,2.25,2.25,0,0,0,1.6-.55,1.87,1.87,0,0,0,.57-1.5c0-.73-.45-1.23-1.37-1.5-1.81-.57-2.79-.88-2.93-.94a5.09,5.09,0,0,1-1.81-1.43,4.11,4.11,0,0,1-.63-2.42,4.09,4.09,0,0,1,1.35-3.13,4.51,4.51,0,0,1,3.2-1.23,5.39,5.39,0,0,1,2.61.64A4.35,4.35,0,0,1,204,22l-1.59,1.77a7.37,7.37,0,0,0-.77-.67,3.2,3.2,0,0,0-1.84-.69,2.36,2.36,0,0,0-1.37.38,1.61,1.61,0,0,0-.64,1.38,1.42,1.42,0,0,0,.62,1.29,8.5,8.5,0,0,0,2.31.75,5.5,5.5,0,0,1,2.77,1.51,3.9,3.9,0,0,1,1.05,2.88Z"/><g class="cls-3"><path class="cls-4" d="M76.19,53.75a.31.31,0,0,1-.09-.22V46.37H73.69a.32.32,0,0,1-.22-.1.3.3,0,0,1-.09-.23v-1a.36.36,0,0,1,.08-.23.32.32,0,0,1,.23-.09h6.64a.32.32,0,0,1,.24.09.32.32,0,0,1,.09.23v1a.3.3,0,0,1-.09.23.33.33,0,0,1-.24.1H77.94v7.16a.35.35,0,0,1-.08.22.3.3,0,0,1-.23.09H76.41A.29.29,0,0,1,76.19,53.75Z"/><path class="cls-4" d="M81,53.19A3,3,0,0,1,80.1,51V49.89A3,3,0,0,1,81,47.74a3.88,3.88,0,0,1,4.69,0,3,3,0,0,1,.91,2.15c0,.1,0,.29,0,.57s0,.47,0,.57a3,3,0,0,1-.89,2.16,4,4,0,0,1-4.72,0Zm3.42-1a2,2,0,0,0,.4-1.26c0-.09,0-.26,0-.51s0-.42,0-.51a2,2,0,0,0-.4-1.26,1.34,1.34,0,0,0-1.06-.44,1.32,1.32,0,0,0-1.06.44A1.93,1.93,0,0,0,81.9,50l0,.51,0,.51a1.93,1.93,0,0,0,.4,1.26,1.35,1.35,0,0,0,1.06.43A1.33,1.33,0,0,0,84.42,52.23Z"/><path class="cls-4" d="M87.91,56.23a.32.32,0,0,1-.09-.23V47.39a.32.32,0,0,1,.09-.23.35.35,0,0,1,.22-.08h1a.32.32,0,0,1,.24.09.31.31,0,0,1,.09.22v.52a2.38,2.38,0,0,1,2.07-1,2.47,2.47,0,0,1,2,.83A3.52,3.52,0,0,1,94.34,50c0,.11,0,.26,0,.47s0,.36,0,.47a3.49,3.49,0,0,1-.75,2.2,2.5,2.5,0,0,1-2,.84,2.34,2.34,0,0,1-2-.92v3a.32.32,0,0,1-.09.23.31.31,0,0,1-.22.08H88.13A.35.35,0,0,1,87.91,56.23Zm4.64-5.38a3.81,3.81,0,0,0,0-.78c-.06-1.14-.55-1.72-1.48-1.72a1.29,1.29,0,0,0-1.1.48A2,2,0,0,0,89.58,50c0,.11,0,.27,0,.5s0,.39,0,.51a1.74,1.74,0,0,0,.4,1.1,1.35,1.35,0,0,0,1.09.46C92,52.57,92.49,52,92.55,50.85Z"/><path class="cls-4" d="M98.48,53.75a.31.31,0,0,1-.09-.22V45.06a.32.32,0,0,1,.09-.23.28.28,0,0,1,.22-.09h3.77a3.32,3.32,0,0,1,2.28.67,2.32,2.32,0,0,1,.75,1.83,2,2,0,0,1-.33,1.15,2.05,2.05,0,0,1-.77.68,2.19,2.19,0,0,1,.92.8,2.27,2.27,0,0,1,.38,1.28,2.53,2.53,0,0,1-.82,2,3.32,3.32,0,0,1-2.29.74H98.7A.31.31,0,0,1,98.48,53.75Zm3.76-5.28a1.5,1.5,0,0,0,1-.32,1.13,1.13,0,0,0,.36-.88,1.06,1.06,0,0,0-.35-.84,1.56,1.56,0,0,0-1-.3h-2v2.34Zm.13,4a1.42,1.42,0,0,0,1-.37,1.37,1.37,0,0,0,0-1.89,1.49,1.49,0,0,0-1-.37h-2.14v2.63Z"/><path class="cls-4" d="M107.15,53.75a.31.31,0,0,1-.09-.22V45.06a.32.32,0,0,1,.09-.23.28.28,0,0,1,.22-.09h3.49a3.79,3.79,0,0,1,2.47.74,2.63,2.63,0,0,1,.9,2.16,2.54,2.54,0,0,1-.9,2.12,3.79,3.79,0,0,1-2.47.73H109v3a.28.28,0,0,1-.09.22.32.32,0,0,1-.24.09h-1.25A.31.31,0,0,1,107.15,53.75ZM110.79,49a1.63,1.63,0,0,0,1.15-.36,1.32,1.32,0,0,0,.4-1,1.45,1.45,0,0,0-.38-1.06,1.63,1.63,0,0,0-1.17-.37h-1.87V49Z"/><path class="cls-4" d="M116.12,53.07a3.57,3.57,0,0,1-1-2.66c0-.25,0-.62,0-1.11s0-.86,0-1.12a3.57,3.57,0,0,1,1.07-2.65,4.54,4.54,0,0,1,5.48,0,3.54,3.54,0,0,1,1.07,2.65c0,.51,0,.88,0,1.12s0,.61,0,1.11a3.5,3.5,0,0,1-1,2.66,4.7,4.7,0,0,1-5.53,0Zm4.15-1.13a2.34,2.34,0,0,0,.55-1.6c0-.52,0-.87,0-1.05s0-.55,0-1a2.4,2.4,0,0,0-.56-1.6,1.84,1.84,0,0,0-1.37-.52,1.86,1.86,0,0,0-1.38.52,2.35,2.35,0,0,0-.54,1.6c0,.25,0,.6,0,1s0,.79,0,1.05a2.35,2.35,0,0,0,.54,1.6,2.09,2.09,0,0,0,2.76,0Z"/><path class="cls-4" d="M128,53.62a3.08,3.08,0,0,1-1.26-.92,2.13,2.13,0,0,1-.45-1.25.28.28,0,0,1,.07-.19.25.25,0,0,1,.2-.09h1.18a.45.45,0,0,1,.24.07.57.57,0,0,1,.16.18,1.33,1.33,0,0,0,.6.74,2.28,2.28,0,0,0,1.26.3,2.51,2.51,0,0,0,1.37-.3,1,1,0,0,0,.47-.84.79.79,0,0,0-.24-.59,2,2,0,0,0-.71-.41q-.46-.16-1.41-.42a5.53,5.53,0,0,1-2.25-1,2.13,2.13,0,0,1-.71-1.72,2.25,2.25,0,0,1,.42-1.34,2.65,2.65,0,0,1,1.18-.93,4.41,4.41,0,0,1,1.8-.34,4.3,4.3,0,0,1,1.87.38,3.13,3.13,0,0,1,1.2.94,2.12,2.12,0,0,1,.43,1.12.24.24,0,0,1-.08.19.23.23,0,0,1-.19.09h-1.24a.39.39,0,0,1-.39-.24,1,1,0,0,0-.5-.69,2.38,2.38,0,0,0-2.22,0,.9.9,0,0,0-.41.79.85.85,0,0,0,.21.59,1.78,1.78,0,0,0,.65.41,13.28,13.28,0,0,0,1.29.4,8.73,8.73,0,0,1,1.84.58,2.38,2.38,0,0,1,1,.82,2.23,2.23,0,0,1,.33,1.26,2.42,2.42,0,0,1-.46,1.46,2.83,2.83,0,0,1-1.3.94A5.31,5.31,0,0,1,130,54,5.22,5.22,0,0,1,128,53.62Z"/><path class="cls-4" d="M135.42,53.14a3.32,3.32,0,0,1-.9-2.37v-.32a3.63,3.63,0,0,1,.85-2.56,3.46,3.46,0,0,1,4.74,0,3.57,3.57,0,0,1,.84,2.49v.28a.31.31,0,0,1-.09.22.32.32,0,0,1-.24.09H136.3v.1a2,2,0,0,0,.4,1.2,1.2,1.2,0,0,0,1,.48,1.48,1.48,0,0,0,1.21-.6.6.6,0,0,1,.18-.18.54.54,0,0,1,.22,0h1.14a.27.27,0,0,1,.2.07.2.2,0,0,1,.09.18,1.23,1.23,0,0,1-.37.73,3,3,0,0,1-1.06.74,3.81,3.81,0,0,1-1.6.31A3.19,3.19,0,0,1,135.42,53.14Zm3.73-3.28v0a1.83,1.83,0,0,0-.39-1.23,1.26,1.26,0,0,0-1-.46,1.25,1.25,0,0,0-1,.46,1.83,1.83,0,0,0-.38,1.23v0Z"/><path class="cls-4" d="M142.15,53.75a.31.31,0,0,1-.09-.22V47.41a.32.32,0,0,1,.09-.24.29.29,0,0,1,.22-.09h1.07a.32.32,0,0,1,.23.09.32.32,0,0,1,.09.24v.53a2.21,2.21,0,0,1,1.87-.86h.55a.28.28,0,0,1,.31.31v1a.33.33,0,0,1-.08.22.32.32,0,0,1-.23.09h-1a1.3,1.3,0,0,0-1,.35,1.34,1.34,0,0,0-.35,1v3.56a.31.31,0,0,1-.31.31h-1.16A.29.29,0,0,1,142.15,53.75Z"/><path class="cls-4" d="M149.34,53.75a.5.5,0,0,1-.17-.24l-2.45-6s0-.06,0-.11a.29.29,0,0,1,.09-.21.25.25,0,0,1,.18-.08h1.08a.34.34,0,0,1,.35.25l1.72,4.53,1.72-4.53a.3.3,0,0,1,.11-.17.31.31,0,0,1,.22-.08h1.08a.28.28,0,0,1,.2.08.32.32,0,0,1,.08.21.27.27,0,0,1,0,.11l-2.43,6a.48.48,0,0,1-.47.33h-1A.45.45,0,0,1,149.34,53.75Z"/><path class="cls-4" d="M154.5,45.88a.29.29,0,0,1-.09-.22v-.95a.32.32,0,0,1,.09-.23.29.29,0,0,1,.22-.09h1.2a.31.31,0,0,1,.32.32v.95a.27.27,0,0,1-.1.22.31.31,0,0,1-.22.09h-1.2A.29.29,0,0,1,154.5,45.88Zm.05,7.87a.31.31,0,0,1-.09-.22V47.39a.32.32,0,0,1,.09-.23.33.33,0,0,1,.22-.08h1.11a.31.31,0,0,1,.31.31v6.14a.31.31,0,0,1-.31.31h-1.11A.29.29,0,0,1,154.55,53.75Z"/><path class="cls-4" d="M158.29,53.18a3,3,0,0,1-.91-2.2v-1a3,3,0,0,1,.91-2.2,3.21,3.21,0,0,1,2.28-.79,3.86,3.86,0,0,1,1.74.36,2.76,2.76,0,0,1,1.05.89,2.13,2.13,0,0,1,.37,1,.24.24,0,0,1-.09.22.31.31,0,0,1-.22.09h-1.16a.38.38,0,0,1-.21-.05,1,1,0,0,1-.13-.22,1.47,1.47,0,0,0-.51-.71,1.36,1.36,0,0,0-.81-.23,1.31,1.31,0,0,0-1,.42,2,2,0,0,0-.39,1.27l0,.49,0,.43c.05,1.12.52,1.68,1.43,1.68a1.41,1.41,0,0,0,.81-.21,1.46,1.46,0,0,0,.51-.72.51.51,0,0,1,.13-.21.29.29,0,0,1,.21-.06h1.16a.31.31,0,0,1,.22.09.24.24,0,0,1,.09.22,2.06,2.06,0,0,1-.37,1,2.67,2.67,0,0,1-1,.9,3.66,3.66,0,0,1-1.75.38A3.21,3.21,0,0,1,158.29,53.18Z"/><path class="cls-4" d="M165.44,53.14a3.37,3.37,0,0,1-.91-2.37v-.32a3.68,3.68,0,0,1,.85-2.56,3.47,3.47,0,0,1,4.75,0,3.57,3.57,0,0,1,.84,2.49v.28a.31.31,0,0,1-.09.22.34.34,0,0,1-.24.09h-4.31v.1a2,2,0,0,0,.39,1.2,1.23,1.23,0,0,0,1,.48,1.46,1.46,0,0,0,1.21-.6,1,1,0,0,1,.18-.18.61.61,0,0,1,.22,0h1.15a.29.29,0,0,1,.2.07.19.19,0,0,1,.08.18,1.17,1.17,0,0,1-.37.73,2.93,2.93,0,0,1-1.06.74,3.76,3.76,0,0,1-1.59.31A3.19,3.19,0,0,1,165.44,53.14Zm3.72-3.28v0a1.88,1.88,0,0,0-.38-1.23,1.3,1.3,0,0,0-1.05-.46,1.26,1.26,0,0,0-1,.46,1.88,1.88,0,0,0-.37,1.23v0Z"/><path class="cls-4" d="M173,53.67a2.65,2.65,0,0,1-1-.69,1.16,1.16,0,0,1-.32-.69.32.32,0,0,1,.08-.21A.31.31,0,0,1,172,52h1.07a.21.21,0,0,1,.18.1l.29.25a1.81,1.81,0,0,0,.52.3,1.71,1.71,0,0,0,.65.11,1.52,1.52,0,0,0,.84-.2.63.63,0,0,0,.33-.58.6.6,0,0,0-.15-.42,1.34,1.34,0,0,0-.53-.3A10.2,10.2,0,0,0,174,51a3.54,3.54,0,0,1-1.63-.72,1.63,1.63,0,0,1-.52-1.27,1.68,1.68,0,0,1,.31-1,2.3,2.3,0,0,1,.93-.76,3.47,3.47,0,0,1,1.47-.29,3.68,3.68,0,0,1,1.52.28,2.63,2.63,0,0,1,1,.67,1.14,1.14,0,0,1,.33.69.27.27,0,0,1-.28.28h-1a.26.26,0,0,1-.22-.1,2.66,2.66,0,0,1-.29-.24,1.48,1.48,0,0,0-.45-.28,1.51,1.51,0,0,0-.6-.1,1.16,1.16,0,0,0-.74.2.68.68,0,0,0-.26.55.56.56,0,0,0,.13.39,1.1,1.1,0,0,0,.5.29,7,7,0,0,0,1.13.28q2.34.47,2.34,2a1.77,1.77,0,0,1-.8,1.5,3.79,3.79,0,0,1-2.23.57A4,4,0,0,1,173,53.67Z"/><path class="cls-4" d="M181.69,53.75a.31.31,0,0,1-.09-.22V45.06a.32.32,0,0,1,.09-.23.29.29,0,0,1,.23-.09h5.65a.3.3,0,0,1,.23.09.33.33,0,0,1,.1.23V46a.32.32,0,0,1-.33.31h-4.16v2.45h3.9a.3.3,0,0,1,.23.09.27.27,0,0,1,.1.22V50a.29.29,0,0,1-.1.23.3.3,0,0,1-.23.09h-3.9v3.21a.31.31,0,0,1-.09.22.32.32,0,0,1-.23.09h-1.17A.33.33,0,0,1,181.69,53.75Z"/><path class="cls-4" d="M189.05,45.88a.29.29,0,0,1-.09-.22v-.95a.32.32,0,0,1,.09-.23.31.31,0,0,1,.22-.09h1.2a.31.31,0,0,1,.32.32v.95a.29.29,0,0,1-.09.22.33.33,0,0,1-.23.09h-1.2A.31.31,0,0,1,189.05,45.88Zm0,7.87a.31.31,0,0,1-.09-.22V47.39a.32.32,0,0,1,.09-.23.35.35,0,0,1,.22-.08h1.11a.29.29,0,0,1,.22.09.31.31,0,0,1,.09.22v6.14a.31.31,0,0,1-.09.22.29.29,0,0,1-.22.09h-1.11A.31.31,0,0,1,189.1,53.75Z"/><path class="cls-4" d="M192.29,53.75a.31.31,0,0,1-.09-.22V47.41a.32.32,0,0,1,.09-.24.29.29,0,0,1,.22-.09h1.07a.32.32,0,0,1,.23.09.32.32,0,0,1,.09.24v.53a2.21,2.21,0,0,1,1.87-.86h.55a.28.28,0,0,1,.31.31v1a.33.33,0,0,1-.08.22.32.32,0,0,1-.23.09h-1a1.32,1.32,0,0,0-1,.35,1.34,1.34,0,0,0-.35,1v3.56a.31.31,0,0,1-.31.31h-1.16A.29.29,0,0,1,192.29,53.75Z"/><path class="cls-4" d="M197.48,53.75a.31.31,0,0,1-.09-.22V47.39a.32.32,0,0,1,.09-.23.33.33,0,0,1,.22-.08h1a.29.29,0,0,1,.32.31v.44a2.26,2.26,0,0,1,1.88-.88,2.08,2.08,0,0,1,2,1.16,2.23,2.23,0,0,1,.88-.84,2.52,2.52,0,0,1,1.24-.32,2.25,2.25,0,0,1,1.74.73,3,3,0,0,1,.67,2.12v3.73a.35.35,0,0,1-.08.22.3.3,0,0,1-.23.09h-1.08a.31.31,0,0,1-.31-.31V49.9a1.71,1.71,0,0,0-.34-1.18,1.22,1.22,0,0,0-.91-.37,1.17,1.17,0,0,0-.86.37,1.65,1.65,0,0,0-.36,1.18v3.63a.35.35,0,0,1-.08.22.32.32,0,0,1-.23.09H201.9a.29.29,0,0,1-.22-.09.28.28,0,0,1-.1-.22V49.9a1.65,1.65,0,0,0-.35-1.18,1.23,1.23,0,0,0-1.76,0,1.65,1.65,0,0,0-.36,1.18v3.63a.29.29,0,0,1-.31.31h-1.1A.29.29,0,0,1,197.48,53.75Z"/></g></svg>